PathFileType	4	(X/Y/Z)	C:\Users\Basilio\Documents\Thesis Gigler\squatting_fais\c3dfiles\047\SLS_pre_front2\markers_experimental.trc
DataRate	CameraRate	NumFrames	NumMarkers	Units	OrigDataRate	OrigDataStartFrame	OrigNumFrames
200.000000	200.000000	4	60	mm	200.000000	0	1258
Frame#	Time	FHD			LBHD			RBHD			C7			T10			CLAV			LSHO			LUUPA			LMUPA			LDUPA			LLEP			LMEP			LRAD			LUL			LRFIN			RSHO			RUPA1			RMUPA			RDUPA			RLEP			RMEP			RRAD			RUL			RUFIN			LASI			RASI			USACR			LSACR			RSACR			LTHI1			LTHI2			LTHI3			LTHI4			LLFC			LMFC			LTIB1			LTIB2			LTIB3			LTIB4			LLMAL			LMMAL			LMT1			LMT2			LMT5			RTHI			RTHI2			RTHI3			RTHI4			RLFC			RMFC			RTIB1			RTIB2			RTIB3			RTIB4			RLMAL			RMMAL			RHEE			RMT1			RMT2			RMT5			
		X1	Y1	Z1	X2	Y2	Z2	X3	Y3	Z3	X4	Y4	Z4	X5	Y5	Z5	X6	Y6	Z6	X7	Y7	Z7	X8	Y8	Z8	X9	Y9	Z9	X10	Y10	Z10	X11	Y11	Z11	X12	Y12	Z12	X13	Y13	Z13	X14	Y14	Z14	X15	Y15	Z15	X16	Y16	Z16	X17	Y17	Z17	X18	Y18	Z18	X19	Y19	Z19	X20	Y20	Z20	X21	Y21	Z21	X22	Y22	Z22	X23	Y23	Z23	X24	Y24	Z24	X25	Y25	Z25	X26	Y26	Z26	X27	Y27	Z27	X28	Y28	Z28	X29	Y29	Z29	X30	Y30	Z30	X31	Y31	Z31	X32	Y32	Z32	X33	Y33	Z33	X34	Y34	Z34	X35	Y35	Z35	X36	Y36	Z36	X37	Y37	Z37	X38	Y38	Z38	X39	Y39	Z39	X40	Y40	Z40	X41	Y41	Z41	X42	Y42	Z42	X43	Y43	Z43	X44	Y44	Z44	X45	Y45	Z45	X46	Y46	Z46	X47	Y47	Z47	X48	Y48	Z48	X49	Y49	Z49	X50	Y50	Z50	X51	Y51	Z51	X52	Y52	Z52	X53	Y53	Z53	X54	Y54	Z54	X55	Y55	Z55	X56	Y56	Z56	X57	Y57	Z57	X58	Y58	Z58	X59	Y59	Z59	X60	Y60	Z60	

1	0	-236.4689025878907	1727.720825195313	-1066.486083984375	-414.2870178222657	1699.367309570313	-1101.40771484375	-398.8919067382814	1704.5859375	-954.1848754882815	-443.6158752441407	1512.737915039063	-1028.090454101563	-427.3618164062501	1197.223266601563	-1014.00537109375	-281.5419921875001	1478.46337890625	-1045.929443359375	-362.1798706054688	1505.396362304688	-1190.994018554688	-254.6590881347657	1446.997436523438	-1311.129516601563	-231.8003387451172	1490.24609375	-1300.7939453125	-189.0626068115235	1461.041015625	-1330.545166015625	-129.6910247802735	1487.970947265625	-1342.809326171875	-100.0373840332032	1428.536376953125	-1296.97509765625	138.0338134765625	1520.747192382813	-1319.414794921875	123.4418640136719	1534.013061523438	-1394.858154296875	219.0315399169922	1547.864624023438	-1345.398071289063	-340.4600524902344	1520.195922851563	-898.4663696289065	-201.7041320800782	1466.32177734375	-791.8024902343752	-178.1123199462891	1503.746337890625	-814.1851806640627	-132.5737609863282	1470.882202148438	-792.3083496093752	-66.48643493652345	1490.144409179688	-802.9907226562502	-53.72517776489259	1425.791870117188	-851.9875488281252	192.5510253906251	1514.740234375	-880.8767700195315	188.4694366455078	1525.782592773438	-806.0531005859377	272.5788574218751	1537.954223632813	-871.172546386719	-226.6616363525391	991.6753540039065	-1105.710083007813	-226.498275756836	1021.875854492188	-877.7007446289065	-418.520233154297	1061.431274414063	-1002.564331054688	-416.0265197753907	1027.194702148438	-1028.151611328125	-421.975555419922	1032.918090820313	-969.2434082031252	-303.4069213867188	825.8500976562502	-1164.363525390625	-262.5336914062501	751.9863891601564	-1162.866333007813	-214.3695831298829	760.1808471679689	-1153.935913085938	-287.2124023437501	696.5065917968751	-1154.789794921875	-300.4072875976563	523.7142333984376	-1113.939819335938	-265.1386718750001	519.2503051757814	-996.623718261719	-271.4968872070313	340.8287963867188	-1015.109741210938	-283.9757995605469	290.9266357421876	-1086.044677734375	-266.0127258300782	290.6474304199219	-1041.970825195313	-281.9207153320313	215.5028228759766	-1007.570373535156	-334.8341369628907	118.9213409423828	-1049.6279296875	-312.6665954589844	135.7075653076172	-963.559997558594	-191.515625	62.31458282470705	-979.2658691406252	-189.2493743896485	59.61135482788087	-1023.876037597656	-237.8359375000001	44.59535598754884	-1069.176513671875	-210.5551757812501	866.975036621094	-774.2078857421877	-143.3954315185547	862.498962402344	-779.0064697265627	-125.4234695434571	887.1989746093752	-790.6489257812502	-98.49230957031253	791.4724121093752	-782.2895507812502	17.08816719055176	703.6084594726564	-803.0772705078127	33.50884246826173	704.5718994140626	-927.348815917969	121.3740539550782	621.8750000000001	-822.248718261719	121.291732788086	521.9435424804689	-775.525817871094	155.2598114013672	545.6008911132814	-797.738708496094	187.3919067382813	509.6486816406251	-830.6999511718752	222.8489990234376	354.0614013671876	-791.4688720703127	229.7253112792969	371.7889709472657	-881.3340454101565	183.9192047119141	294.3133850097657	-835.824401855469	376.8026123046876	364.6027526855469	-876.4939575195315	382.6986694335938	376.6210937500001	-834.5225219726565	356.3075256347657	337.9216308593751	-772.7080078125002	
2	0.005	-236.6048126220704	1727.762084960938	-1066.307983398438	-414.3101501464845	1699.334106445313	-1101.268432617188	-398.9209289550782	1704.554565429688	-954.1007080078127	-443.6979064941407	1512.706298828125	-1027.989990234375	-427.3562316894532	1197.13427734375	-1013.980041503906	-281.6322631835938	1478.4423828125	-1045.813842773438	-362.2187500000001	1505.43603515625	-1190.899658203125	-254.5667877197266	1446.982177734375	-1311.063232421875	-231.7647857666016	1490.298217773438	-1300.71533203125	-189.0932159423828	1461.107299804688	-1330.461303710938	-129.6909332275391	1488.013549804688	-1342.757568359375	-99.98890686035159	1428.578857421875	-1296.922241210938	137.9169616699219	1520.78125	-1319.396850585938	123.4405746459961	1534.041015625	-1394.8583984375	219.0029907226563	1547.878295898438	-1345.354736328125	-340.4978942871094	1520.215454101563	-898.3923339843752	-201.7598114013672	1466.285034179688	-791.7232666015627	-178.2496948242188	1503.744262695313	-814.114196777344	-132.5563659667969	1470.896118164063	-792.3411254882815	-66.53456115722658	1490.099975585938	-802.9387817382815	-53.89868927001955	1425.741943359375	-851.8228149414065	191.8292999267578	1515.197143554688	-880.5704345703127	188.4651184082032	1525.683471679688	-806.076843261719	272.4306335449219	1537.848876953125	-871.1353759765627	-226.7025451660157	991.6673583984377	-1105.670043945313	-226.5171051025391	1021.832397460938	-877.6575317382815	-418.5848083496095	1061.384033203125	-1002.555786132813	-416.0845947265626	1027.164184570313	-1028.152221679688	-422.0283203125001	1032.85888671875	-969.2100219726565	-303.4220581054688	825.8287353515627	-1164.360229492188	-262.6105041503907	752.0192871093751	-1162.867309570313	-214.3692016601563	760.1660156250001	-1153.993530273438	-287.2565612792969	696.5205078125001	-1154.80029296875	-300.3762207031251	523.7105102539064	-1113.966552734375	-265.1178588867188	519.2033081054689	-996.6763305664065	-271.4946594238282	340.7931213378907	-1015.054504394531	-283.8251037597657	290.9461059570313	-1086.076782226563	-266.0041198730469	290.6025695800782	-1041.9912109375	-281.9219055175782	215.4565734863282	-1007.5908203125	-334.8220825195313	118.9367294311524	-1049.571533203125	-312.6668090820313	135.7030639648438	-963.5566406250002	-191.4235076904297	62.31631469726564	-979.259460449219	-189.2493743896485	59.61135482788087	-1023.876037597656	-237.8229217529297	44.61403274536134	-1069.121948242188	-210.6446533203126	866.940856933594	-774.1174926757815	-143.4369354248047	862.4338989257815	-779.022644042969	-125.4496994018555	887.0861816406252	-790.6768188476565	-98.7853698730469	791.3814697265627	-782.1912841796877	17.0354290008545	703.4311523437501	-803.1690673828127	31.48081588745118	704.2283935546876	-927.1895141601565	121.2188873291016	621.9797973632814	-822.8266601562502	121.2450637817383	521.7348022460939	-775.709411621094	155.1692504882813	545.4729003906251	-797.825622558594	187.2858581542969	509.550018310547	-830.7315673828127	222.8061981201172	353.9688415527344	-791.5943603515627	229.5518341064454	371.6268920898438	-881.4182739257815	183.8739929199219	294.1988830566407	-835.9627685546877	376.7316589355469	364.5127563476563	-876.5562133789065	382.5787353515626	376.5685119628907	-834.5604248046877	356.2330017089844	337.8831787109376	-772.7847900390627	
3	0.01	-236.7059326171876	1727.773559570313	-1066.172729492188	-414.4702148437501	1699.329223632813	-1101.131103515625	-398.9287414550782	1704.53759765625	-954.0008544921877	-443.7243957519532	1512.666870117188	-1027.96044921875	-427.4188842773439	1197.152099609375	-1013.939453125	-281.6608581542969	1478.435424804688	-1045.713012695313	-362.1929626464844	1505.434326171875	-1190.801879882813	-254.5520935058594	1446.99755859375	-1310.980346679688	-231.7048339843751	1490.302856445313	-1300.654418945313	-189.0598602294922	1461.147827148438	-1330.335327148438	-129.6343536376953	1488.020874023438	-1342.662475585938	-99.98816680908206	1428.615478515625	-1296.853393554688	137.9922637939453	1520.803833007813	-1319.390014648438	123.3063354492188	1534.078491210938	-1394.789794921875	219.0922546386719	1547.9111328125	-1345.383666992188	-340.6021423339844	1520.235961914063	-898.2580566406252	-201.8182373046876	1466.275634765625	-791.6171875000002	-178.3386688232422	1503.702392578125	-814.0233154296877	-132.5613555908203	1470.8662109375	-792.3173828125002	-66.57472229003908	1490.083862304688	-802.900573730469	-53.99215698242189	1425.728271484375	-851.7352294921877	191.7417144775391	1515.08251953125	-880.5838623046877	188.4413146972657	1525.556884765625	-806.0782470703127	272.3172912597657	1537.703857421875	-871.1474609375002	-226.8052368164063	991.6174316406252	-1105.576416015625	-226.5913848876954	1021.763244628906	-877.6337890625002	-418.6994934082032	1061.346557617188	-1002.507080078125	-416.1070861816407	1027.130981445313	-1028.114501953125	-422.0611877441407	1032.814331054688	-969.2119140625002	-303.1004333496094	826.2004394531252	-1164.526977539063	-262.6104125976563	752.0181884765626	-1162.86572265625	-214.3813018798829	760.1905517578126	-1154.03076171875	-287.2156982421876	696.4909057617189	-1154.792602539063	-300.3172607421876	523.6801147460939	-1114.01953125	-265.0787353515626	519.1843872070314	-996.6644287109377	-271.4609680175782	340.7961120605469	-1015.09228515625	-283.8058471679688	290.9266052246094	-1086.079345703125	-265.9916076660157	290.6206665039063	-1041.976196289063	-281.9219055175782	215.4565734863282	-1007.5908203125	-334.8778381347657	118.9505462646485	-1049.568603515625	-312.6777038574219	135.6912689208985	-963.5241699218752	-191.4124145507813	62.36100387573244	-979.2449951171877	-189.2493743896485	59.61135482788087	-1023.876037597656	-237.8034210205079	44.61119461059571	-1069.12841796875	-210.7765350341797	866.8696289062502	-774.050720214844	-143.520980834961	862.370056152344	-779.020446777344	-125.6364898681641	886.8906250000002	-790.568298339844	-98.95449829101565	791.2835693359377	-782.1602783203127	16.87841606140137	703.2984008789064	-803.1892700195315	31.39606094360352	704.1710815429689	-927.230895996094	121.1170349121094	621.8062744140626	-822.790466308594	121.1302108764649	521.6158447265626	-775.8421630859377	155.087158203125	545.3384399414064	-797.8684082031252	187.1928405761719	509.4491271972657	-830.8342895507815	222.610092163086	353.8511962890626	-791.6434326171877	229.4884796142579	371.5198669433594	-881.5852050781252	183.8214721679688	294.0851440429688	-836.1337890625002	376.6701049804688	364.4457702636719	-876.6602783203127	382.5167236328126	376.5093078613282	-834.663513183594	356.1916809082032	337.6900634765626	-772.9205322265627	
4	0.015	-236.7043151855469	1727.743041992188	-1066.012084960938	-414.3931884765626	1699.282592773438	-1101.07470703125	-398.9790344238282	1704.46630859375	-953.9170532226565	-443.748748779297	1512.656494140625	-1027.852416992188	-427.4836730957032	1197.139892578125	-1013.874267578125	-281.7125854492188	1478.450561523438	-1045.559326171875	-362.1853942871094	1505.4697265625	-1190.716064453125	-254.4819946289063	1447.025146484375	-1310.923095703125	-231.7544708251954	1490.330078125	-1300.546630859375	-189.0625762939453	1461.211669921875	-1330.286376953125	-129.6532135009766	1488.08056640625	-1342.537353515625	-99.98085784912112	1428.626953125	-1296.717895507813	138.0664367675782	1520.853515625	-1319.363647460938	123.4456558227539	1534.0810546875	-1394.768432617188	219.0340576171876	1547.949829101563	-1345.336303710938	-340.6339721679688	1520.2470703125	-898.1817626953127	-201.8517608642579	1466.2763671875	-791.5543212890627	-178.3672943115235	1503.7021484375	-813.9792480468752	-132.677734375	1470.845825195313	-792.2305297851565	-66.72679138183595	1489.990478515625	-802.8332519531252	-54.04219818115236	1425.698974609375	-851.6677856445315	191.7188110351563	1514.983520507813	-880.623718261719	188.4067535400391	1525.426025390625	-806.0938110351565	272.2637634277344	1537.648681640625	-871.179870605469	-226.8797149658204	991.6019287109377	-1105.55712890625	-226.7899627685547	1021.620544433594	-877.4327392578127	-418.764129638672	1061.299194335938	-1002.49853515625	-416.152557373047	1027.081298828125	-1028.118408203125	-422.1619873046876	1032.78271484375	-969.2249145507815	-303.1722717285157	826.1578369140627	-1164.555419921875	-262.6526184082032	751.9573364257814	-1162.929931640625	-214.4173889160157	760.1493530273439	-1154.07177734375	-287.1809997558594	696.4830932617189	-1154.8486328125	-300.3269348144532	523.6425781250001	-1114.023193359375	-265.0433349609376	519.1852416992189	-996.687683105469	-271.4841613769532	340.7860107421876	-1015.056579589844	-283.7818908691407	290.8996276855469	-1086.08203125	-266.0136718750001	290.5758056640626	-1041.947509765625	-281.9110717773438	215.4529571533204	-1007.556213378906	-334.8711853027344	118.9058990478516	-1049.599731445313	-312.7072753906251	135.669677734375	-963.5889892578127	-191.4475555419922	62.31310272216798	-979.2586059570315	-189.2493743896485	59.61135482788087	-1023.876037597656	-237.7652587890626	44.6388053894043	-1069.107421875	-210.8555603027344	866.780944824219	-774.0072021484377	-143.5776519775391	862.0397949218752	-778.703063964844	-125.7183837890625	886.7562255859377	-790.5772705078127	-98.99014282226565	791.1993408203127	-782.1871337890627	16.69247627258301	703.1450805664064	-803.1697387695315	31.22507667541505	704.0214233398439	-927.2255859375002	120.9638442993164	621.6962280273439	-822.8067016601565	120.9609909057617	521.5128173828126	-775.853454589844	154.9317626953125	545.2089233398439	-797.8057861328127	187.1385498046875	509.3266906738282	-830.8854980468752	222.4890747070313	353.6751098632813	-791.7647705078127	229.4663848876954	371.4227600097657	-881.6707763671877	183.8850708007813	293.8695068359376	-836.2929687500002	376.6079101562501	364.4020385742188	-876.7392578125002	382.4443969726563	376.4131164550782	-834.7297973632815	356.1692199707032	337.6239013671876	-773.0065917968752	
